<?xml version="1.0" encoding="UTF-8"?> <svg xmlns="http://www.w3.org/2000/svg" width="69" height="56" viewBox="0 0 69 56" fill="none"><path d="M18.6482 21.3724V25.3333H5.59277V21.3724H18.6482ZM7.24365 0.6875V25.3333H2.18994V0.6875H7.24365ZM16.9468 10.7253V14.5847H5.59277V10.7253H16.9468ZM18.6313 0.6875V4.66536H5.59277V0.6875H18.6313ZM30.6193 7.01823V10.4714H20.0064V7.01823H30.6193ZM22.6344 2.49869H27.486V19.8151C27.486 20.3455 27.5533 20.7517 27.6881 21.0339C27.8341 21.316 28.0474 21.5135 28.3282 21.6263C28.609 21.7279 28.9628 21.7787 29.3895 21.7787C29.6927 21.7787 29.9623 21.7673 30.1981 21.7448C30.4452 21.7109 30.653 21.6771 30.8214 21.6432L30.8382 25.2317C30.4228 25.3672 29.9735 25.4744 29.4906 25.5533C29.0077 25.6324 28.4743 25.6719 27.8903 25.6719C26.8234 25.6719 25.8912 25.4969 25.0938 25.1472C24.3078 24.786 23.7012 24.2105 23.2745 23.4205C22.8478 22.6307 22.6344 21.5924 22.6344 20.306V2.49869ZM42.1692 25.6719C40.7542 25.6719 39.4851 25.4461 38.362 24.9948C37.239 24.5321 36.2844 23.8945 35.4982 23.082C34.7235 22.2695 34.1282 21.3272 33.7126 20.2552C33.2971 19.1719 33.0893 18.0208 33.0893 16.8021V16.1251C33.0893 14.7369 33.2859 13.4675 33.679 12.3164C34.0721 11.1654 34.6336 10.1667 35.3636 9.32031C36.1048 8.47396 37.0032 7.82509 38.0588 7.37369C39.1145 6.91103 40.3049 6.67969 41.6301 6.67969C42.9216 6.67969 44.0671 6.89409 45.0667 7.32292C46.0661 7.75173 46.9029 8.36111 47.5767 9.15104C48.2618 9.94097 48.7784 10.8889 49.1265 11.9948C49.4746 13.0894 49.6487 14.3081 49.6487 15.6511V17.6823H35.1613V14.4323H44.8813V14.0599C44.8813 13.3828 44.7578 12.7791 44.5107 12.2487C44.2749 11.707 43.9156 11.2782 43.4326 10.9622C42.9497 10.6463 42.332 10.4883 41.5797 10.4883C40.9394 10.4883 40.3892 10.6293 39.9287 10.9115C39.4683 11.1936 39.0921 11.5885 38.8 12.0964C38.5193 12.6042 38.3059 13.2023 38.1599 13.8907C38.0251 14.5677 37.9578 15.3125 37.9578 16.1251V16.8021C37.9578 17.5356 38.0588 18.2127 38.261 18.8333C38.4744 19.454 38.772 19.99 39.1538 20.4415C39.547 20.8928 40.0185 21.2427 40.5688 21.4909C41.1304 21.7392 41.7649 21.8633 42.4724 21.8633C43.3485 21.8633 44.1627 21.694 44.915 21.3555C45.6787 21.0056 46.3358 20.4809 46.886 19.7812L49.2444 22.3541C48.8626 22.9071 48.3403 23.4375 47.6778 23.9453C47.0264 24.4531 46.2402 24.8707 45.3193 25.1979C44.3985 25.5139 43.3485 25.6719 42.1692 25.6719ZM60.3394 21.8633C60.9347 21.8633 61.4625 21.7504 61.923 21.5248C62.3834 21.2877 62.7428 20.9605 63.0011 20.5429C63.2706 20.1141 63.411 19.612 63.4223 19.0364H67.9874C67.9763 20.3229 67.6337 21.4683 66.9599 22.4727C66.286 23.4657 65.382 24.25 64.2478 24.8255C63.1134 25.3897 61.8444 25.6719 60.4406 25.6719C59.0255 25.6719 57.7902 25.4349 56.7345 24.9609C55.69 24.4869 54.8197 23.8324 54.1235 22.9973C53.4271 22.1511 52.905 21.1693 52.5568 20.0521C52.2086 18.9236 52.0346 17.7161 52.0346 16.4297V15.9388C52.0346 14.6411 52.2086 13.4336 52.5568 12.3164C52.905 11.1879 53.4271 10.2062 54.1235 9.37109C54.8197 8.52473 55.69 7.86459 56.7345 7.39063C57.779 6.91667 59.0031 6.67969 60.4068 6.67969C61.9006 6.67969 63.2089 6.96745 64.3319 7.54297C65.4663 8.11849 66.3535 8.94228 66.9936 10.0143C67.645 11.0751 67.9763 12.3333 67.9874 13.7891H63.4223C63.411 13.1797 63.2819 12.6267 63.0348 12.1302C62.799 11.6337 62.4508 11.2387 61.9904 10.9453C61.5411 10.6406 60.9853 10.4883 60.3226 10.4883C59.6151 10.4883 59.0368 10.6406 58.5875 10.9453C58.1383 11.2387 57.7902 11.645 57.5431 12.1641C57.296 12.6719 57.1219 13.253 57.0209 13.9076C56.9311 14.5508 56.8861 15.2279 56.8861 15.9388V16.4297C56.8861 17.1407 56.9311 17.8233 57.0209 18.4779C57.1108 19.1324 57.2792 19.7136 57.5262 20.2213C57.7846 20.7292 58.1383 21.1297 58.5875 21.4232C59.0368 21.7165 59.6208 21.8633 60.3394 21.8633Z" fill="#B22D30"></path><path d="M17.8825 37.8489V38.6666H12.7717V37.8489H17.8825ZM17.7166 31.8125L13.0101 38.6666H12.3933V37.9166L17.0945 31.0833H17.7166V31.8125ZM17.2915 31.0833V31.9062H12.4607V31.0833H17.2915ZM19.0683 35.9114V35.7917C19.0683 35.3854 19.1271 35.0086 19.2446 34.6614C19.3621 34.3107 19.5314 34.0069 19.7525 33.7499C19.9737 33.4895 20.2415 33.2881 20.556 33.1458C20.8704 32.9999 21.2229 32.927 21.6134 32.927C22.0073 32.927 22.3615 32.9999 22.676 33.1458C22.9938 33.2881 23.2634 33.4895 23.4845 33.7499C23.7091 34.0069 23.8802 34.3107 23.9977 34.6614C24.1152 35.0086 24.1739 35.3854 24.1739 35.7917V35.9114C24.1739 36.3177 24.1152 36.6943 23.9977 37.0415C23.8802 37.3889 23.7091 37.6926 23.4845 37.953C23.2634 38.2101 22.9955 38.4114 22.6812 38.5573C22.3701 38.6995 22.0177 38.7707 21.6237 38.7707C21.2298 38.7707 20.8756 38.6995 20.5611 38.5573C20.2467 38.4114 19.9772 38.2101 19.7525 37.953C19.5314 37.6926 19.3621 37.3889 19.2446 37.0415C19.1271 36.6943 19.0683 36.3177 19.0683 35.9114ZM20.0273 35.7917V35.9114C20.0273 36.1926 20.0601 36.4583 20.1258 36.7082C20.1915 36.9547 20.2899 37.1735 20.4211 37.3645C20.556 37.5555 20.7235 37.7065 20.924 37.8177C21.1244 37.9253 21.3577 37.9791 21.6237 37.9791C21.8863 37.9791 22.1162 37.9253 22.3131 37.8177C22.5136 37.7065 22.6794 37.5555 22.8107 37.3645C22.942 37.1735 23.0405 36.9547 23.1062 36.7082C23.1753 36.4583 23.2098 36.1926 23.2098 35.9114V35.7917C23.2098 35.5138 23.1753 35.2517 23.1062 35.0051C23.0405 34.7551 22.9403 34.5346 22.8055 34.3437C22.6743 34.1493 22.5084 33.9965 22.3079 33.8854C22.111 33.7742 21.8794 33.7187 21.6134 33.7187C21.3508 33.7187 21.1192 33.7742 20.9187 33.8854C20.7218 33.9965 20.556 34.1493 20.4211 34.3437C20.2899 34.5346 20.1915 34.7551 20.1258 35.0051C20.0601 35.2517 20.0273 35.5138 20.0273 35.7917ZM26.7334 34.2343V38.6666H25.7745V33.0311H26.6816L26.7334 34.2343ZM26.5054 35.6354L26.1062 35.6197C26.1097 35.2343 26.1667 34.8785 26.2773 34.5521C26.3879 34.2222 26.5433 33.9357 26.7438 33.6926C26.9442 33.4495 27.1826 33.2621 27.4591 33.1302C27.739 32.9947 28.0483 32.927 28.3869 32.927C28.6633 32.927 28.9121 32.9653 29.1333 33.0415C29.3544 33.1145 29.5428 33.2326 29.6983 33.3958C29.8572 33.559 29.9782 33.7707 30.0611 34.0311C30.144 34.2881 30.1854 34.6023 30.1854 34.9739V38.6666H29.2214V34.9635C29.2214 34.6683 29.1782 34.4322 29.0918 34.2551C29.0054 34.0746 28.8793 33.9443 28.7135 33.8645C28.5476 33.7811 28.3437 33.7395 28.1018 33.7395C27.8633 33.7395 27.6457 33.7898 27.4487 33.8906C27.2552 33.9913 27.0876 34.1302 26.9459 34.3073C26.8078 34.4843 26.6988 34.6874 26.6193 34.9166C26.5433 35.1423 26.5054 35.3819 26.5054 35.6354ZM35.347 37.703V34.8021C35.347 34.5798 35.3021 34.3871 35.2122 34.2239C35.1258 34.0573 34.9946 33.9287 34.8183 33.8385C34.642 33.7482 34.4244 33.703 34.1653 33.703C33.9234 33.703 33.7108 33.7447 33.5277 33.8281C33.348 33.9114 33.2063 34.0207 33.1027 34.1562C33.0025 34.2917 32.9523 34.4374 32.9523 34.5937H31.9934C31.9934 34.3923 32.0453 34.1926 32.1489 33.9947C32.2525 33.7969 32.4011 33.6179 32.5947 33.4583C32.7916 33.2951 33.0266 33.1666 33.2996 33.0729C33.576 32.9757 33.8836 32.927 34.2222 32.927C34.63 32.927 34.9893 32.9965 35.3003 33.1354C35.6148 33.2742 35.8602 33.4843 36.0364 33.7655C36.216 34.0434 36.3059 34.3923 36.3059 34.8125V37.4374C36.3059 37.625 36.3215 37.8246 36.3526 38.0363C36.3871 38.2482 36.4372 38.4305 36.5029 38.5833V38.6666H35.5026C35.4541 38.5555 35.4162 38.4079 35.3884 38.2239C35.3608 38.0363 35.347 37.8627 35.347 37.703ZM35.5129 35.2499L35.5233 35.927H34.5539C34.281 35.927 34.0374 35.9495 33.8231 35.9947C33.6089 36.0363 33.4292 36.1006 33.2841 36.1874C33.1389 36.2742 33.0284 36.3837 32.9523 36.5155C32.8763 36.6441 32.8384 36.7951 32.8384 36.9687C32.8384 37.1458 32.878 37.3073 32.9575 37.453C33.037 37.5989 33.1562 37.7153 33.3151 37.8021C33.4775 37.8854 33.6763 37.927 33.9112 37.927C34.205 37.927 34.4641 37.8645 34.6888 37.7395C34.9134 37.6145 35.0913 37.4618 35.2226 37.2811C35.3574 37.1006 35.43 36.9253 35.4403 36.7551L35.8498 37.2187C35.8257 37.3645 35.76 37.5259 35.6528 37.703C35.5457 37.8802 35.4022 38.0503 35.2226 38.2135C35.0464 38.3731 34.8356 38.5069 34.5903 38.6145C34.3484 38.7187 34.0753 38.7707 33.7713 38.7707C33.3912 38.7707 33.0577 38.6961 32.7709 38.5469C32.4875 38.3975 32.2665 38.1978 32.1075 37.9478C31.952 37.6943 31.8742 37.4114 31.8742 37.0989C31.8742 36.7969 31.933 36.5311 32.0504 36.3021C32.1679 36.0694 32.3373 35.8767 32.5584 35.7239C32.7796 35.5677 33.0456 35.4495 33.3567 35.3697C33.6677 35.2898 34.0149 35.2499 34.3984 35.2499H35.5129ZM45.9655 37.8489V38.6666H42.1921V37.8489H45.9655ZM42.389 31.0833V38.6666H41.3887V31.0833H42.389ZM49.6912 38.7707C49.3008 38.7707 48.9465 38.7047 48.6287 38.5729C48.3143 38.4374 48.0429 38.2482 47.8149 38.0051C47.5903 37.7621 47.4175 37.4739 47.2965 37.1406C47.1756 36.8073 47.1151 36.4426 47.1151 36.0469V35.8281C47.1151 35.3697 47.1825 34.9618 47.3173 34.6041C47.452 34.243 47.6353 33.9374 47.8667 33.6874C48.0982 33.4374 48.3608 33.2482 48.6546 33.1197C48.9483 32.9913 49.2524 32.927 49.5669 32.927C49.9677 32.927 50.3133 32.9965 50.6035 33.1354C50.8972 33.2742 51.1374 33.4687 51.324 33.7187C51.5106 33.9653 51.6488 34.2569 51.7387 34.5937C51.8285 34.927 51.8735 35.2917 51.8735 35.6874V36.1197H47.6853V35.3333H50.9145V35.2603C50.9007 35.0103 50.8488 34.7673 50.759 34.5311C50.6726 34.2951 50.5345 34.1006 50.3443 33.9478C50.1543 33.7951 49.8952 33.7187 49.5669 33.7187C49.3491 33.7187 49.1488 33.7655 48.9656 33.8593C48.7824 33.9495 48.6253 34.085 48.4939 34.2655C48.3626 34.4461 48.2607 34.6666 48.1881 34.927C48.1155 35.1874 48.0793 35.4878 48.0793 35.8281V36.0469C48.0793 36.3142 48.1155 36.5659 48.1881 36.8021C48.2641 37.0346 48.3729 37.2395 48.5146 37.4166C48.6598 37.5937 48.8343 37.7326 49.0381 37.8333C49.2455 37.9339 49.4805 37.9843 49.7431 37.9843C50.0817 37.9843 50.3686 37.9149 50.6035 37.7759C50.8385 37.6371 51.0441 37.4513 51.2204 37.2187L51.8009 37.6822C51.6799 37.8662 51.5261 38.0415 51.3395 38.2082C51.153 38.3749 50.9231 38.5103 50.6502 38.6145C50.3807 38.7187 50.061 38.7707 49.6912 38.7707ZM56.6566 37.1718C56.6566 37.0329 56.6254 36.9045 56.5632 36.7863C56.5046 36.6649 56.3818 36.5555 56.1953 36.4583C56.0121 36.3575 55.7356 36.2707 55.3659 36.1978C55.0549 36.1319 54.7733 36.0538 54.5211 35.9635C54.2723 35.8731 54.0597 35.7638 53.8835 35.6354C53.7107 35.5069 53.5776 35.3558 53.4844 35.1822C53.3911 35.0086 53.3445 34.8055 53.3445 34.5729C53.3445 34.3506 53.3928 34.1406 53.4895 33.9426C53.5898 33.7447 53.7297 33.5694 53.9094 33.4166C54.0926 33.2638 54.312 33.1441 54.5677 33.0573C54.8234 32.9705 55.1085 32.927 55.423 32.927C55.8722 32.927 56.2558 33.0069 56.5737 33.1666C56.8915 33.3263 57.1351 33.5398 57.3044 33.8073C57.4737 34.0711 57.5584 34.3645 57.5584 34.6874H56.5996C56.5996 34.5311 56.5529 34.3802 56.4596 34.2343C56.3697 34.085 56.2368 33.9618 56.0604 33.8645C55.8877 33.7673 55.6752 33.7187 55.423 33.7187C55.1568 33.7187 54.9409 33.7603 54.7751 33.8437C54.6126 33.9235 54.4933 34.0259 54.4174 34.151C54.3449 34.2759 54.3085 34.4079 54.3085 34.5469C54.3085 34.651 54.3258 34.7447 54.3604 34.8281C54.3983 34.9079 54.464 34.9826 54.5573 35.0521C54.6506 35.1179 54.7819 35.1805 54.9513 35.2395C55.1206 35.2986 55.3366 35.3575 55.5992 35.4166C56.0587 35.5207 56.4372 35.6458 56.7344 35.7917C57.0315 35.9374 57.2527 36.1162 57.3979 36.3281C57.5429 36.5398 57.6155 36.7969 57.6155 37.0989C57.6155 37.3454 57.5637 37.5711 57.4599 37.7759C57.3598 37.9809 57.2129 38.1579 57.0194 38.3073C56.8294 38.453 56.6013 38.5677 56.3352 38.651C56.0727 38.7309 55.7771 38.7707 55.4489 38.7707C54.9547 38.7707 54.5366 38.6822 54.1945 38.5051C53.8524 38.3281 53.5933 38.0989 53.4171 37.8177C53.2407 37.5363 53.1526 37.2395 53.1526 36.927H54.1168C54.1306 37.1909 54.2066 37.401 54.3449 37.5573C54.483 37.7101 54.6523 37.8194 54.8528 37.8854C55.0532 37.9478 55.2519 37.9791 55.4489 37.9791C55.7115 37.9791 55.9309 37.9443 56.1071 37.8749C56.2868 37.8055 56.4234 37.7101 56.5166 37.5885C56.6099 37.467 56.6566 37.3281 56.6566 37.1718ZM61.6212 33.0311V33.7707H58.5889V33.0311H61.6212ZM59.6151 31.6614H60.5741V37.2707C60.5741 37.4618 60.6034 37.6058 60.6622 37.703C60.721 37.8003 60.797 37.8645 60.8903 37.8958C60.9836 37.927 61.0838 37.9426 61.1909 37.9426C61.2703 37.9426 61.3533 37.9357 61.4397 37.9218C61.5296 37.9045 61.5969 37.8906 61.6419 37.8802L61.647 38.6666C61.571 38.6909 61.4708 38.7135 61.3464 38.7343C61.2255 38.7586 61.0786 38.7707 60.9058 38.7707C60.6708 38.7707 60.4549 38.7239 60.2579 38.6302C60.061 38.5363 59.9037 38.3802 59.7863 38.1614C59.6722 37.9391 59.6151 37.6406 59.6151 37.2655V31.6614ZM65.4712 38.7707C65.0809 38.7707 64.7266 38.7047 64.4086 38.5729C64.0943 38.4374 63.8229 38.2482 63.595 38.0051C63.3703 37.7621 63.1976 37.4739 63.0765 37.1406C62.9557 36.8073 62.8952 36.4426 62.8952 36.0469V35.8281C62.8952 35.3697 62.9626 34.9618 63.0974 34.6041C63.2321 34.243 63.4152 33.9374 63.6467 33.6874C63.8783 33.4374 64.1409 33.2482 64.4347 33.1197C64.7283 32.9913 65.0324 32.927 65.3469 32.927C65.7478 32.927 66.0933 32.9965 66.3835 33.1354C66.6773 33.2742 66.9175 33.4687 67.104 33.7187C67.2906 33.9653 67.4289 34.2569 67.5187 34.5937C67.6085 34.927 67.6535 35.2917 67.6535 35.6874V36.1197H63.4653V35.3333H66.6945V35.2603C66.6807 35.0103 66.6289 34.7673 66.539 34.5311C66.4526 34.2951 66.3144 34.1006 66.1244 33.9478C65.9343 33.7951 65.6752 33.7187 65.3469 33.7187C65.1292 33.7187 64.9288 33.7655 64.7457 33.8593C64.5624 33.9495 64.4052 34.085 64.274 34.2655C64.1426 34.4461 64.0407 34.6666 63.9681 34.927C63.8955 35.1874 63.8593 35.4878 63.8593 35.8281V36.0469C63.8593 36.3142 63.8955 36.5659 63.9681 36.8021C64.0441 37.0346 64.1529 37.2395 64.2947 37.4166C64.4398 37.5937 64.6143 37.7326 64.8181 37.8333C65.0255 37.9339 65.2605 37.9843 65.5231 37.9843C65.8618 37.9843 66.1485 37.9149 66.3835 37.7759C66.6185 37.6371 66.8242 37.4513 67.0004 37.2187L67.5809 37.6822C67.4599 37.8662 67.3061 38.0415 67.1195 38.2082C66.933 38.3749 66.7032 38.5103 66.4302 38.6145C66.1607 38.7187 65.8411 38.7707 65.4712 38.7707Z" fill="#E1E1E1"></path><path d="M32.866 46.5625C32.866 46.4297 32.8452 46.3125 32.8038 46.2109C32.7649 46.1068 32.6949 46.0131 32.5939 45.9297C32.4954 45.8464 32.358 45.7669 32.1817 45.6915C32.0082 45.6159 31.7879 45.5391 31.5209 45.4609C31.241 45.3776 30.9883 45.2852 30.7629 45.1836C30.5374 45.0795 30.3444 44.9609 30.1837 44.8281C30.023 44.6953 29.8998 44.5429 29.8144 44.3711C29.7288 44.1992 29.6861 44.0027 29.6861 43.7812C29.6861 43.5599 29.7313 43.3555 29.8221 43.168C29.9128 42.9805 30.0423 42.8177 30.2109 42.6797C30.3819 42.5391 30.5853 42.4297 30.8211 42.3516C31.057 42.2735 31.32 42.2344 31.6104 42.2344C32.0354 42.2344 32.3956 42.3164 32.691 42.4805C32.989 42.6419 33.2158 42.8541 33.3713 43.1172C33.5268 43.3776 33.6046 43.6563 33.6046 43.9531H32.8582C32.8582 43.7396 32.8128 43.5508 32.7222 43.3867C32.6314 43.22 32.4941 43.0899 32.3101 42.9961C32.126 42.8997 31.8929 42.8516 31.6104 42.8516C31.3434 42.8516 31.1231 42.8919 30.9494 42.9727C30.7759 43.0533 30.6462 43.1628 30.5606 43.3008C30.4778 43.4388 30.4363 43.5964 30.4363 43.7735C30.4363 43.8932 30.461 44.0027 30.5102 44.1016C30.562 44.1979 30.6411 44.2877 30.7473 44.3711C30.8562 44.4544 30.9935 44.5312 31.1594 44.6016C31.3279 44.6719 31.5286 44.7396 31.7619 44.8047C32.0833 44.8959 32.3606 44.9973 32.5939 45.1093C32.8272 45.2213 33.0189 45.3476 33.1692 45.4883C33.3221 45.6263 33.4349 45.7839 33.5075 45.9609C33.5826 46.1355 33.6201 46.3333 33.6201 46.5547C33.6201 46.7864 33.5736 46.9961 33.4801 47.1836C33.3869 47.3711 33.2534 47.5312 33.0798 47.664C32.9061 47.7969 32.6975 47.8997 32.4539 47.9727C32.2129 48.0429 31.9433 48.0781 31.6453 48.0781C31.3836 48.0781 31.1256 48.0416 30.8717 47.9688C30.6204 47.8959 30.3909 47.7864 30.1837 47.6407C29.9789 47.4948 29.8144 47.3151 29.6899 47.1016C29.5681 46.8855 29.5072 46.6355 29.5072 46.3516H30.2536C30.2536 46.5469 30.2911 46.7148 30.3664 46.8555C30.4415 46.9935 30.5439 47.1081 30.6734 47.1992C30.8056 47.2904 30.9546 47.3581 31.1205 47.4024C31.289 47.444 31.4639 47.4648 31.6453 47.4648C31.9071 47.4648 32.1287 47.4284 32.3101 47.3555C32.4915 47.2825 32.6288 47.1784 32.7222 47.0429C32.818 46.9076 32.866 46.7473 32.866 46.5625ZM37.3459 47.2773V45.1016C37.3459 44.9349 37.3122 44.7904 37.2449 44.668C37.18 44.5429 37.0815 44.4467 36.9494 44.3789C36.8172 44.3112 36.6539 44.2773 36.4596 44.2773C36.2781 44.2773 36.1187 44.3085 35.9814 44.3711C35.8466 44.4336 35.7404 44.5156 35.6627 44.6172C35.5874 44.7188 35.5499 44.8281 35.5499 44.9453H34.8307C34.8307 44.7943 34.8696 44.6445 34.9473 44.4961C35.0251 44.3476 35.1365 44.2136 35.2817 44.0937C35.4294 43.9713 35.6056 43.8749 35.8103 43.8047C36.0176 43.7317 36.2484 43.6953 36.5023 43.6953C36.8082 43.6953 37.0777 43.7473 37.311 43.8516C37.5468 43.9557 37.7308 44.1133 37.863 44.3243C37.9977 44.5325 38.0651 44.7943 38.0651 45.1093V47.0781C38.0651 47.2188 38.0767 47.3685 38.1001 47.5273C38.126 47.6861 38.1635 47.8229 38.2127 47.9375V48H37.4625C37.4263 47.9167 37.3977 47.806 37.377 47.668C37.3562 47.5273 37.3459 47.3972 37.3459 47.2773ZM37.4703 45.4375L37.478 45.9453H36.7511C36.5464 45.9453 36.3637 45.9623 36.203 45.9961C36.0423 46.0273 35.9075 46.0755 35.7987 46.1407C35.6899 46.2057 35.6069 46.2877 35.5499 46.3867C35.4928 46.4831 35.4644 46.5964 35.4644 46.7265C35.4644 46.8593 35.4941 46.9805 35.5537 47.0899C35.6134 47.1992 35.7027 47.2864 35.822 47.3516C35.9438 47.414 36.0929 47.4453 36.2691 47.4453C36.4893 47.4453 36.6837 47.3984 36.8522 47.3047C37.0206 47.2109 37.1541 47.0964 37.2526 46.9609C37.3537 46.8255 37.4081 46.694 37.4159 46.5664L37.723 46.914C37.7048 47.0235 37.6556 47.1445 37.5753 47.2773C37.4949 47.4101 37.3874 47.5377 37.2526 47.6601C37.1204 47.78 36.9624 47.8803 36.7783 47.9609C36.5969 48.0391 36.3922 48.0781 36.1641 48.0781C35.8791 48.0781 35.629 48.0221 35.4139 47.9101C35.2013 47.7981 35.0354 47.6484 34.9163 47.4609C34.7996 47.2708 34.7413 47.0585 34.7413 46.8243C34.7413 46.5976 34.7853 46.3984 34.8734 46.2265C34.9617 46.0521 35.0886 45.9076 35.2545 45.7929C35.4204 45.6757 35.6198 45.5872 35.8531 45.5273C36.0863 45.4675 36.3468 45.4375 36.6345 45.4375H37.4703ZM37.4742 42.0781L37.9601 42.1211C37.9601 42.3112 37.9225 42.4779 37.8474 42.6211C37.7722 42.7643 37.6711 42.8749 37.5441 42.9531C37.4198 43.0312 37.2785 43.0703 37.1204 43.0703C36.9883 43.0703 36.8795 43.0521 36.7939 43.0156C36.7084 42.9765 36.6318 42.9336 36.5646 42.8867C36.4972 42.8372 36.4259 42.7943 36.3507 42.7579C36.2781 42.7188 36.1875 42.6992 36.0785 42.6992C35.9697 42.6992 35.8778 42.7409 35.8025 42.8243C35.7301 42.9076 35.6937 43.0104 35.6937 43.1328L35.2078 43.1093C35.2078 42.9193 35.244 42.7527 35.3166 42.6093C35.3918 42.4636 35.4928 42.3503 35.6198 42.2695C35.7468 42.1861 35.8881 42.1445 36.0436 42.1445C36.1551 42.1445 36.2522 42.164 36.3351 42.2031C36.4207 42.2396 36.501 42.2825 36.5761 42.332C36.6514 42.3789 36.7291 42.4219 36.8094 42.4609C36.8898 42.4973 36.9818 42.5156 37.0854 42.5156C37.1943 42.5156 37.2863 42.474 37.3614 42.3907C37.4366 42.3047 37.4742 42.2005 37.4742 42.0781ZM39.4039 45.9336V45.8437C39.4039 45.5391 39.448 45.2565 39.5361 44.9961C39.6242 44.7331 39.7512 44.5052 39.917 44.3125C40.0829 44.1172 40.2838 43.9661 40.5196 43.8593C40.7555 43.75 41.0198 43.6953 41.3127 43.6953C41.6081 43.6953 41.8737 43.75 42.1097 43.8593C42.3481 43.9661 42.5502 44.1172 42.7161 44.3125C42.8844 44.5052 43.0128 44.7331 43.1009 44.9961C43.189 45.2565 43.233 45.5391 43.233 45.8437V45.9336C43.233 46.2383 43.189 46.5208 43.1009 46.7812C43.0128 47.0416 42.8844 47.2695 42.7161 47.4648C42.5502 47.6576 42.3493 47.8085 42.1135 47.918C41.8802 48.0248 41.6159 48.0781 41.3204 48.0781C41.025 48.0781 40.7594 48.0248 40.5236 47.918C40.2877 47.8085 40.0856 47.6576 39.917 47.4648C39.7512 47.2695 39.6242 47.0416 39.5361 46.7812C39.448 46.5208 39.4039 46.2383 39.4039 45.9336ZM40.1231 45.8437V45.9336C40.1231 46.1445 40.1477 46.3437 40.197 46.5312C40.2463 46.7161 40.32 46.8803 40.4186 47.0235C40.5196 47.1667 40.6453 47.28 40.7956 47.3633C40.9459 47.444 41.1208 47.4844 41.3204 47.4844C41.5174 47.4844 41.6898 47.444 41.8375 47.3633C41.9878 47.28 42.1122 47.1667 42.2106 47.0235C42.3092 46.8803 42.383 46.7161 42.4322 46.5312C42.4841 46.3437 42.51 46.1445 42.51 45.9336V45.8437C42.51 45.6355 42.4841 45.4388 42.4322 45.2539C42.383 45.0664 42.3079 44.9011 42.2068 44.7579C42.1083 44.612 41.9839 44.4973 41.8337 44.414C41.6858 44.3307 41.5123 44.2891 41.3127 44.2891C41.1157 44.2891 40.9421 44.3307 40.7918 44.414C40.6441 44.4973 40.5196 44.612 40.4186 44.7579C40.32 44.9011 40.2463 45.0664 40.197 45.2539C40.1477 45.4388 40.1231 45.6355 40.1231 45.8437ZM49.1024 45.7695H47.5901V45.1563H49.1024C49.3953 45.1563 49.6324 45.1093 49.8138 45.0156C49.9952 44.9219 50.1273 44.7917 50.2103 44.6251C50.2958 44.4584 50.3386 44.2683 50.3386 44.0547C50.3386 43.8593 50.2958 43.6757 50.2103 43.5039C50.1273 43.332 49.9952 43.194 49.8138 43.0899C49.6324 42.9831 49.3953 42.9297 49.1024 42.9297H47.7651V48H47.0148V42.3125H49.1024C49.5301 42.3125 49.8915 42.3867 50.187 42.5352C50.4824 42.6836 50.7067 42.8893 50.8595 43.1524C51.0124 43.4128 51.0889 43.7109 51.0889 44.0469C51.0889 44.4115 51.0124 44.7227 50.8595 44.9805C50.7067 45.2383 50.4824 45.4349 50.187 45.5703C49.8915 45.7031 49.5301 45.7695 49.1024 45.7695ZM54.7603 47.2773V45.1016C54.7603 44.9349 54.7266 44.7904 54.6592 44.668C54.5944 44.5429 54.4958 44.4467 54.3637 44.3789C54.2315 44.3112 54.0683 44.2773 53.8739 44.2773C53.6925 44.2773 53.5331 44.3085 53.3957 44.3711C53.261 44.4336 53.1547 44.5156 53.0769 44.6172C53.0018 44.7188 52.9641 44.8281 52.9641 44.9453H52.245C52.245 44.7943 52.2838 44.6445 52.3616 44.4961C52.4393 44.3476 52.5508 44.2136 52.696 44.0937C52.8437 43.9713 53.0199 43.8749 53.2246 43.8047C53.432 43.7317 53.6626 43.6953 53.9166 43.6953C54.2225 43.6953 54.492 43.7473 54.7252 43.8516C54.961 43.9557 55.1451 44.1133 55.2772 44.3243C55.4121 44.5325 55.4793 44.7943 55.4793 45.1093V47.0781C55.4793 47.2188 55.491 47.3685 55.5144 47.5273C55.5402 47.6861 55.5779 47.8229 55.6272 47.9375V48H54.8768C54.8405 47.9167 54.812 47.806 54.7913 47.668C54.7706 47.5273 54.7603 47.3972 54.7603 47.2773ZM54.8846 45.4375L54.8924 45.9453H54.1654C53.9607 45.9453 53.778 45.9623 53.6173 45.9961C53.4566 46.0273 53.3219 46.0755 53.2129 46.1407C53.1041 46.2057 53.0212 46.2877 52.9641 46.3867C52.9072 46.4831 52.8787 46.5964 52.8787 46.7265C52.8787 46.8593 52.9084 46.9805 52.9681 47.0899C53.0277 47.1992 53.1171 47.2864 53.2363 47.3516C53.3581 47.414 53.5071 47.4453 53.6833 47.4453C53.9036 47.4453 54.098 47.3984 54.2665 47.3047C54.4349 47.2109 54.5684 47.0964 54.6669 46.9609C54.768 46.8255 54.8224 46.694 54.8302 46.5664L55.1372 46.914C55.1192 47.0235 55.07 47.1445 54.9896 47.2773C54.9093 47.4101 54.8017 47.5377 54.6669 47.6601C54.5347 47.78 54.3767 47.8803 54.1926 47.9609C54.0112 48.0391 53.8065 48.0781 53.5784 48.0781C53.2934 48.0781 53.0432 48.0221 52.8281 47.9101C52.6156 47.7981 52.4497 47.6484 52.3305 47.4609C52.2139 47.2708 52.1557 47.0585 52.1557 46.8243C52.1557 46.5976 52.1997 46.3984 52.2878 46.2265C52.3759 46.0521 52.5029 45.9076 52.6688 45.7929C52.8346 45.6757 53.0342 45.5872 53.2675 45.5273C53.5006 45.4675 53.7611 45.4375 54.0488 45.4375H54.8846ZM59.5822 47.0235V43.7735H60.3053V48H59.6172L59.5822 47.0235ZM59.7183 46.1328L60.0177 46.1251C60.0177 46.4063 59.9878 46.6667 59.9282 46.9063C59.8712 47.1432 59.7779 47.3489 59.6483 47.5235C59.5188 47.6979 59.349 47.8347 59.1391 47.9336C58.9292 48.03 58.6739 48.0781 58.3732 48.0781C58.1685 48.0781 57.9806 48.0481 57.8095 47.9883C57.641 47.9284 57.496 47.836 57.3742 47.7109C57.2524 47.586 57.1578 47.4232 57.0903 47.2227C57.0256 47.0221 56.9932 46.7812 56.9932 46.5V43.7735H57.7124V46.5079C57.7124 46.6979 57.7331 46.8555 57.7745 46.9805C57.8186 47.1028 57.8769 47.2005 57.9495 47.2735C58.0246 47.3437 58.1076 47.3932 58.1983 47.4219C58.2916 47.4505 58.3874 47.4648 58.486 47.4648C58.7917 47.4648 59.0342 47.4063 59.2129 47.2891C59.3918 47.1693 59.5201 47.0091 59.5978 46.8085C59.6781 46.6055 59.7183 46.3803 59.7183 46.1328ZM62.581 42V48H61.858V42H62.581ZM63.9432 45.9336V45.8437C63.9432 45.5391 63.9873 45.2565 64.0754 44.9961C64.1635 44.7331 64.2905 44.5052 64.4564 44.3125C64.6222 44.1172 64.823 43.9661 65.0589 43.8593C65.2947 43.75 65.559 43.6953 65.8519 43.6953C66.1474 43.6953 66.413 43.75 66.6488 43.8593C66.8873 43.9661 67.0895 44.1172 67.2554 44.3125C67.4238 44.5052 67.5521 44.7331 67.6402 44.9961C67.7283 45.2565 67.7723 45.5391 67.7723 45.8437V45.9336C67.7723 46.2383 67.7283 46.5208 67.6402 46.7812C67.5521 47.0416 67.4238 47.2695 67.2554 47.4648C67.0895 47.6576 66.8886 47.8085 66.6528 47.918C66.4195 48.0248 66.1552 48.0781 65.8597 48.0781C65.5642 48.0781 65.2986 48.0248 65.0628 47.918C64.827 47.8085 64.6248 47.6576 64.4564 47.4648C64.2905 47.2695 64.1635 47.0416 64.0754 46.7812C63.9873 46.5208 63.9432 46.2383 63.9432 45.9336ZM64.6624 45.8437V45.9336C64.6624 46.1445 64.687 46.3437 64.7362 46.5312C64.7854 46.7161 64.8594 46.8803 64.9578 47.0235C65.0589 47.1667 65.1846 47.28 65.3349 47.3633C65.4853 47.444 65.6601 47.4844 65.8597 47.4844C66.0566 47.4844 66.229 47.444 66.3767 47.3633C66.527 47.28 66.6515 47.1667 66.7499 47.0235C66.8484 46.8803 66.9223 46.7161 66.9715 46.5312C67.0234 46.3437 67.0493 46.1445 67.0493 45.9336V45.8437C67.0493 45.6355 67.0234 45.4388 66.9715 45.2539C66.9223 45.0664 66.8471 44.9011 66.7461 44.7579C66.6475 44.612 66.5232 44.4973 66.3728 44.414C66.2252 44.3307 66.0515 44.2891 65.8519 44.2891C65.655 44.2891 65.4813 44.3307 65.3311 44.414C65.1833 44.4973 65.0589 44.612 64.9578 44.7579C64.8594 44.9011 64.7854 45.0664 64.7362 45.2539C64.687 45.4388 64.6624 45.6355 64.6624 45.8437Z" fill="#E1E1E1"></path></svg> 